<?xml version="1.0" encoding="utf-8" ?><svg xmlns="http://www.w3.org/2000/svg" xmlns:xlink="http://www.w3.org/1999/xlink" width="736" height="736" viewBox="276 0 736 736"><path fill="none" transform="scale(0.958333 0.958333)" d="M0 0L1344 0L1344 768L0 768L0 0Z"/><path fill="#316791" transform="scale(0.958333 0.958333)" d="M470.35 72.3072C486.56 66.2856 529.82 67.9133 549.188 67.9651L608.159 68.0386C657.208 68.0572 707.221 67.6472 756.216 68.3335C764.576 67.9595 776.669 67.6714 784.886 68.1511C824.158 70.4435 881.531 61.2404 916.28 79.7273C947.324 93.8041 971.561 119.564 983.728 151.411C988.058 162.654 990.736 174.466 991.677 186.479C993.008 202.738 992.367 227.915 992.39 244.785L992.5 347.147L992.561 482.816L992.511 526.938C992.487 535.397 992.571 544.124 992.137 552.557C991.814 558.851 989.745 565.96 989.14 572.09C992.446 583.523 974.347 608.476 971.037 617.38C962.752 639.665 952.128 660.183 932.532 675.204C918.576 685.902 894.249 697.633 875.995 699.592C821.578 705.431 765.724 700.384 710.989 700.122L574.136 700.094C543.319 700.121 513.147 700.909 482.681 697.337C427.862 690.909 391.692 644.744 381.22 593.268C379.026 582.483 374.492 572.629 373.321 561.176C370.858 537.066 371.743 511.379 371.761 487.207L371.781 359.423L371.763 256.049C371.74 241.275 370.892 208.442 373.358 194.813C373.962 171.921 380.571 149.59 392.524 130.058C409.484 102.478 438.715 79.8515 470.35 72.3072Z"/><path fill="#A56448" transform="scale(0.958333 0.958333)" d="M756.216 68.3335C764.576 67.9595 776.669 67.6714 784.886 68.1511C824.158 70.4435 881.531 61.2404 916.28 79.7273C947.324 93.8041 971.561 119.564 983.728 151.411C988.058 162.654 990.736 174.466 991.677 186.479C993.008 202.738 992.367 227.915 992.39 244.785L992.5 347.147L992.561 482.816L992.511 526.938C992.487 535.397 992.571 544.124 992.137 552.557C991.814 558.851 989.745 565.96 989.14 572.09C980.523 602.241 970.071 622.059 946.223 643.596C941.941 647.463 936.749 650.55 932.448 654.164C919.469 661.708 905.09 669.204 890.042 672.03C860.811 677.519 827.28 674.586 797.276 675.264C789.404 675.442 763.965 675.588 757.656 674.898C750.553 675.427 737.559 675.067 730.063 675.073L677.625 675.092C622.855 674.474 567.423 675.708 512.736 674.775C511.225 674.576 509.958 674.448 508.644 673.599C526.567 675.083 552.512 673.743 571.149 674.115C580.758 674.308 607.749 674.721 616.214 673.818L616.228 672.346C615.055 670.975 613.954 669.608 612.439 668.601C618.948 663.755 614.388 656.74 617.642 647.616C623.047 644.566 617.549 643.83 620.03 639.77C621.036 639.989 621.606 639.918 622.616 639.882C622.69 639.028 622.014 634.849 621.853 633.738C623.918 630.379 625.285 632.769 627.818 629.378L627.081 624.836C628.518 623.555 627.887 623.922 630.349 623.966C629.497 621.909 628.956 621.601 629.362 619.7C630.843 619.043 631.072 618.95 632.345 617.971C632.051 616.757 631.906 616.425 632.022 615.144C637.152 615.027 632.616 613.616 634.181 610.211C635.06 610.048 635.473 610.067 636.341 610.276C637.152 608.054 637.104 607.019 638.716 605.703L639.155 607.035C641.088 604.127 638.813 605.427 640.394 602.435L641.892 603.787C644.113 601.342 642.484 598.516 644.525 595.262C646.038 595.408 645.977 595.399 647.457 595.017C651.085 588.78 657.214 580.585 660.115 574.097C660.401 573.458 660.254 572.894 661.208 571.104L661.626 571.547L661.906 570.568L662.56 567.948C664.485 566.83 664.468 567.942 665.707 566.022C665.099 564.491 664.577 563.695 664.808 562.139L667.143 561.217C669.076 556.822 671.058 552.175 673.505 548.078C672.951 549.006 675.917 533.919 675.913 534.116L675.923 533.352C677.652 532.959 677.393 533.269 678.57 532.232C679.083 525.957 674.771 523.271 679.144 518.789C678.747 513.03 676.967 502.074 674.32 497.062C672.597 495.866 670.381 495.917 670.505 496.087C660.831 481.947 641.363 500.531 632.042 507.537C626.575 511.646 624.053 515.853 616.934 520.367C612.497 524.033 607.852 528.167 603.058 531.252L600.346 530.612L599.716 531.159L600.888 531.845L600.639 532.568C598.785 532.172 592.641 530.622 591.225 531.501C587.463 533.837 588.423 537.725 583.721 538.052L584.388 536.81C584.942 536.729 585.803 536.443 586.187 536.011C605.676 514.14 624.034 489.846 644.117 468.569C653.404 456.612 665.707 443.117 675.6 431.337C700.349 401.872 726.462 372.969 751.079 343.43C751.544 335.596 752.915 330.609 755.009 323.098C758.465 315.305 763.066 307.03 768.309 300.279C771.101 296.684 775.161 293.624 777.858 289.846C780.814 288.324 788.971 282.482 793.306 279.972C800.337 277.321 807.326 274.56 814.272 271.69C788.072 271.686 761.872 271.818 735.674 272.088C745.557 247.414 756.781 223.032 766.837 198.406C768.954 193.224 771.97 187.281 773.542 181.988C776.755 176.593 781.7 162.667 785.172 155.76C788.218 153.348 796.534 131.839 798.99 126.267L798.927 133.744L799.941 138.241C802.827 130.484 801.178 127.29 802.066 119.774C802.468 116.374 808.378 107.209 807.508 103.689C808.432 100.09 810.917 94.7756 812.444 91.2207C808.764 95.3045 804.854 100.193 801.286 104.449L800.911 103.478C802.521 101.112 809.988 90.4191 812.545 91.0889C812.868 94.4723 809.92 99.5289 810.645 100.636C814.259 106.147 816.974 107.796 816.968 114.942C816.648 112.195 816.58 111.417 816.813 108.654L817.434 108.391L818.658 113.235C819.503 111.917 819.347 112.623 819.088 111.037L821.27 110.884C823.029 105.297 826.293 100.212 828.509 94.9477C830.068 90.69 830.108 84.9496 831.844 80.8548C833.166 77.7368 833.313 73.1508 832.546 69.8811L833.978 69.5361C832.449 67.7686 761.023 70.8958 756.216 68.3335Z"/><defs><linearGradient id="gradient_0" gradientUnits="userSpaceOnUse" x1="889.49103" y1="313.68216" x2="631.43512" y2="306.15115"><stop offset="0" stop-color="#D9CFC2"/><stop offset="1" stop-color="#A3FFFF"/></linearGradient></defs><path fill="url(#gradient_0)" transform="scale(0.958333 0.958333)" d="M798.99 126.267L798.927 133.744C797.962 137.104 792.22 156.265 790.875 158.683L790.987 157.798L788.76 163.381L789.77 162.123C789.723 165.033 789.268 164.992 790.552 167.122C791.823 166.116 791.513 164.597 791.53 162.944C792.19 167.847 792.231 170.328 793.784 175.05L794.333 175.548C800.08 180.715 810.339 182.43 817.901 182.93C812.075 183.832 794.795 182.061 791.017 183.837C801.633 184.492 814.332 184.266 825.07 183.973C851.722 183.244 879.272 184.618 905.845 183.716L906.17 183.324C907.868 182.439 911.538 182.778 913.636 182.819L919.563 182.705C922.688 183.77 926.941 182.247 929.108 183.775C929.466 185.964 926.929 189.93 926.994 190.023C930.301 194.721 934.115 199.508 938.106 203.625C941.162 206.778 947.616 203.606 950.912 205.156C950.216 206.018 948.743 206.104 947.432 206.42L947.536 207.194C950.633 208.757 954.108 209.537 956.907 211.858C957.709 212.522 964.615 210.922 966.656 213.01C967.278 216.99 960.664 230.021 958.042 233.833C955.854 237.013 952.174 239.446 948.801 241.258C949.714 241.811 949.442 241.652 950.507 241.912C950.058 243.396 945.937 245.372 944.203 246.406L943.635 246.416C943.798 244.759 943.883 244.639 944.565 243.094C936.634 245.832 930.793 255.605 925.56 261.886L925.201 259.629L924.432 259.797C923.763 261.451 923.752 261.562 923.619 263.356C922.513 264.108 922.281 264.357 920.935 264.641L920.219 266.899L919.602 266.874L918.966 265.647C918.001 266.109 917.646 267.404 917.433 268.479C911.425 275.126 887.082 274.178 885.047 285.062C884.59 287.507 890.098 294.894 891.059 298.067C887.788 296.874 882.851 292.863 880.071 293.211C880.485 294.186 887.747 303.303 889.039 305.243C900.628 322.64 902.755 340.196 900.606 360.679C899.209 376.434 889.085 388.442 888.871 403.228C888.834 405.811 890.96 409.896 892.521 411.682C899.482 419.644 921.7 446.441 921.66 456.669L921.146 457.729C926.321 466.654 921.899 478.547 911.749 480.341C909.379 479.37 903.647 480.062 902.873 478.569C901.088 475.129 892.121 464.187 888.765 463.528L887.495 463.304L886.401 465.413L885.429 465.616C882.827 463.075 871.275 449.718 869.449 446.915C864.557 444.803 859.876 434.185 858.715 429.276C855.287 414.778 850.542 423.47 842.308 418.273C839.259 418.777 835.465 419.515 832.443 419.732C827.106 420.487 821.089 419.85 815.779 419.2L811.275 418.339C809.044 420.443 797.178 421.336 793.407 421.771C792.03 421.132 792.436 421.631 791.946 420.425C787.334 417.184 783.098 415.279 778.631 411.659C777.078 413.422 771.059 420.503 769.678 421.69C759.789 433.806 748.619 445.984 739.059 458.098L738.27 459.059C735.41 459.272 727.3 459.817 725.063 458.073C722.607 458.745 706.84 458.398 703.368 458.393L707.319 453.687C702.64 456.862 700.852 458.149 695.263 456.215C694.041 455.793 694.608 456.384 693.884 455.125C695.941 452.782 696.702 451.985 697.879 449.098L698.118 448.499C695.076 451.875 692.524 454.841 689.683 458.388C686.538 458.379 670.405 458.715 668.795 457.803C669.888 456.214 670.636 455.188 671.872 453.698C663.853 459.68 658.968 457.363 649.802 466.608C645.248 471.202 630.369 489.648 627.005 491.314L626.686 490.9C630.993 485.138 641.481 473.938 644.409 469.121L644.117 468.569C653.404 456.612 665.707 443.117 675.6 431.337C700.349 401.872 726.462 372.969 751.079 343.43C751.544 335.596 752.915 330.609 755.009 323.098C758.465 315.305 763.066 307.03 768.309 300.279C771.101 296.684 775.161 293.624 777.858 289.846C780.814 288.324 788.971 282.482 793.306 279.972C800.337 277.321 807.326 274.56 814.272 271.69C788.072 271.686 761.872 271.818 735.674 272.088C745.557 247.414 756.781 223.032 766.837 198.406C768.954 193.224 771.97 187.281 773.542 181.988C776.755 176.593 781.7 162.667 785.172 155.76C788.218 153.348 796.534 131.839 798.99 126.267Z"/><defs><linearGradient id="gradient_1" gradientUnits="userSpaceOnUse" x1="867.85498" y1="317.84836" x2="784.40607" y2="381.20438"><stop offset="0" stop-color="#AAC3C6"/><stop offset="1" stop-color="#D4EAF1"/></linearGradient></defs><path fill="url(#gradient_1)" transform="scale(0.958333 0.958333)" d="M766.175 317.279C768.587 310.868 776.704 301.044 782.077 296.749C799.86 282.537 816.058 279.11 837.902 280.9C847.909 283.359 854.82 285.239 863.468 291.105C876.98 299.619 887.969 313.945 892.043 329.42C900.27 359.088 892.334 380.199 872.483 402.364C874.595 405.414 877.091 408.839 879.013 411.961C881.612 411.656 886.126 410.974 887.878 412.986C898.757 425.484 911.559 444.285 921.146 457.729C926.321 466.654 921.899 478.547 911.749 480.341C909.379 479.37 903.647 480.062 902.873 478.569C901.088 475.129 892.121 464.187 888.765 463.528L887.495 463.304L886.401 465.413L885.429 465.616C882.827 463.075 871.275 449.718 869.449 446.915C864.557 444.803 859.876 434.185 858.715 429.276C855.287 414.778 850.542 423.47 842.308 418.273C839.259 418.777 835.465 419.515 832.443 419.732L830.388 419.196C829.811 414.815 829.459 408.047 825.612 405.472C823.701 405.303 822.73 405.384 821.091 404.246C819.313 403.531 811.195 402.07 807.473 400.652C794.675 395.778 783.853 385.665 778.334 373.156C770.438 355.26 772.296 341.915 778.746 324.369C780.359 318.949 774.743 314.551 771.688 309.952C770.233 312.384 768.512 315.932 766.175 317.279Z"/><defs><linearGradient id="gradient_2" gradientUnits="userSpaceOnUse" x1="906.20856" y1="343.85043" x2="822.50256" y2="407.13684"><stop offset="0" stop-color="#C05924"/><stop offset="1" stop-color="#1B4770"/></linearGradient></defs><path fill="url(#gradient_2)" transform="scale(0.958333 0.958333)" d="M766.175 317.279C768.587 310.868 776.704 301.044 782.077 296.749C799.86 282.537 816.058 279.11 837.902 280.9C847.909 283.359 854.82 285.239 863.468 291.105C876.98 299.619 887.969 313.945 892.043 329.42C900.27 359.088 892.334 380.199 872.483 402.364C874.595 405.414 877.091 408.839 879.013 411.961C881.612 411.656 886.126 410.974 887.878 412.986C898.757 425.484 911.559 444.285 921.146 457.729C926.321 466.654 921.899 478.547 911.749 480.341C909.379 479.37 903.647 480.062 902.873 478.569C901.088 475.129 892.121 464.187 888.765 463.528L887.495 463.304L886.401 465.413L885.429 465.616C882.827 463.075 871.275 449.718 869.449 446.915C864.557 444.803 859.876 434.185 858.715 429.276C855.287 414.778 850.542 423.47 842.308 418.273C839.259 418.777 835.465 419.515 832.443 419.732L830.388 419.196C829.811 414.815 829.459 408.047 825.612 405.472C823.701 405.303 822.73 405.384 821.091 404.246C826.849 404.379 831.586 404.305 837.286 403.195C850.758 400.615 862.628 392.726 870.226 381.302C878.557 368.889 881.585 353.66 878.634 339.003C875.829 324.953 867.631 311.985 855.581 304.08C843.779 296.303 829.363 293.554 815.528 296.445C797.967 300.151 788.083 309.845 778.746 324.369C780.359 318.949 774.743 314.551 771.688 309.952C770.233 312.384 768.512 315.932 766.175 317.279Z"/><defs><linearGradient id="gradient_3" gradientUnits="userSpaceOnUse" x1="856.34369" y1="432.6019" x2="858.1485" y2="413.57925"><stop offset="0" stop-color="#C0B2A9"/><stop offset="1" stop-color="#D3CFC6"/></linearGradient></defs><path fill="url(#gradient_3)" transform="scale(0.958333 0.958333)" d="M858.708 412.125C860.993 415.097 863.535 418.254 865.554 421.383C864.141 425.135 863.743 426.123 863.357 430.065C865.124 437.193 865.756 440.413 869.449 446.915C864.557 444.803 859.876 434.185 858.715 429.276C855.287 414.778 850.542 423.47 842.308 418.273C848.524 416.456 852.775 414.836 858.708 412.125Z"/><path fill="#A56448" transform="scale(0.958333 0.958333)" d="M863.468 291.105C876.98 299.619 887.969 313.945 892.043 329.42C889.362 328.541 885.684 314.424 884.335 314.974C876.732 318.073 861.821 307.006 869.242 297.121C867.515 294.633 865.412 294.893 863.468 291.105Z"/><path fill="#BBBBAD" transform="scale(0.958333 0.958333)" d="M863.357 430.065C866.426 432.394 885.941 459.942 887.495 463.304L886.401 465.413L885.429 465.616C882.827 463.075 871.275 449.718 869.449 446.915C865.756 440.413 865.124 437.193 863.357 430.065Z"/><path fill="#BA764F" transform="scale(0.958333 0.958333)" d="M909.643 463.561C908.04 463.24 906.285 462.891 905.161 461.676C897.966 453.902 874.043 424.914 873.465 415.713L873.99 415.199C878.642 420.657 875.584 424.124 881.881 429.36L882.95 428.986C881.895 425.925 878.388 423.328 878.708 419.585C884.274 413.769 895.139 426.584 894.747 431.295L895.043 431.82C899.337 439.339 914.754 456.965 915.753 463.057C915.238 464.961 915.737 464.306 913.934 465.372C911.762 465.44 911.355 465.241 909.643 463.561Z"/><path fill="#664D48" transform="scale(0.958333 0.958333)" d="M909.643 463.561C908.04 463.24 906.285 462.891 905.161 461.676C897.966 453.902 874.043 424.914 873.465 415.713L873.99 415.199C878.642 420.657 875.584 424.124 881.881 429.36L882.95 428.986C881.895 425.925 878.388 423.328 878.708 419.585C884.274 413.769 895.139 426.584 894.747 431.295C890.649 427.597 888.245 419.408 882.586 419.028L881.463 419.773C880.315 426.275 905.31 455.393 909.643 463.561Z"/><path fill="#43485A" transform="scale(0.958333 0.958333)" d="M871.347 427.575C878.092 429.432 901.431 463.053 909.526 468.176C910.766 468.961 910.52 468.553 911.363 469.69L910.99 469.957C895.591 465.91 882.295 438.082 871.347 427.575Z"/><path fill="none" transform="scale(0.958333 0.958333)" d="M823.595 306.116C824.381 306.067 825.168 306.034 825.955 306.016C837.066 305.832 847.782 310.137 855.679 317.957C861.297 323.455 871.702 339.703 864.322 346.905C859.503 347.804 858.128 343.185 856.384 339.48C849.91 325.782 835.244 316.774 819.976 316.886C816.487 316.911 811.528 318.856 808.56 317.557C806.687 315.705 807.2 316.62 806.571 314.112C807.995 308.501 818.592 306.716 823.595 306.116Z"/><path fill="none" transform="scale(0.958333 0.958333)" d="M862.656 354.215C864.413 353.753 866.221 354.762 866.752 356.499C867.284 358.237 866.348 360.085 864.633 360.685C863.462 361.095 862.16 360.83 861.241 359.995C860.322 359.161 859.933 357.89 860.229 356.684C860.524 355.478 861.455 354.531 862.656 354.215Z"/><defs><linearGradient id="gradient_4" gradientUnits="userSpaceOnUse" x1="953.45898" y1="341.75235" x2="842.07599" y2="336.33014"><stop offset="0" stop-color="#D9A87D"/><stop offset="1" stop-color="#BDBAB0"/></linearGradient></defs><path fill="url(#gradient_4)" transform="scale(0.958333 0.958333)" d="M966.656 213.01C967.278 216.99 960.664 230.021 958.042 233.833C955.854 237.013 952.174 239.446 948.801 241.258C949.714 241.811 949.442 241.652 950.507 241.912C950.058 243.396 945.937 245.372 944.203 246.406L943.635 246.416C943.798 244.759 943.883 244.639 944.565 243.094C936.634 245.832 930.793 255.605 925.56 261.886L925.201 259.629L924.432 259.797C923.763 261.451 923.752 261.562 923.619 263.356C922.513 264.108 922.281 264.357 920.935 264.641L920.219 266.899L919.602 266.874L918.966 265.647C918.001 266.109 917.646 267.404 917.433 268.479C911.425 275.126 887.082 274.178 885.047 285.062C884.59 287.507 890.098 294.894 891.059 298.067C887.788 296.874 882.851 292.863 880.071 293.211C880.485 294.186 887.747 303.303 889.039 305.243C900.628 322.64 902.755 340.196 900.606 360.679C899.209 376.434 889.085 388.442 888.871 403.228C888.834 405.811 890.96 409.896 892.521 411.682C899.482 419.644 921.7 446.441 921.66 456.669L921.146 457.729C911.559 444.285 898.757 425.484 887.878 412.986C886.126 410.974 881.612 411.656 879.013 411.961C877.091 408.839 874.595 405.414 872.483 402.364C892.334 380.199 900.27 359.088 892.043 329.42C887.969 313.945 876.98 299.619 863.468 291.105C854.82 285.239 847.909 283.359 837.902 280.9C841.595 280.398 842.549 281.614 846.014 280.587C848.116 276.898 839.062 274.169 850.032 267.515L848.093 266.784C850.943 265.16 859.033 267.554 862.061 261.717C855.479 261.285 846.671 261.476 839.953 261.404C822.206 261.188 804.458 261.069 786.71 261.047C776.522 261.021 764.449 261.326 754.523 260.712C753.168 258.514 759.876 245.45 761.316 242.333C764.102 241.893 772.196 242.052 775.322 242.048L803.84 242.066L905.258 241.894C904.773 241.366 885.789 241.562 882.935 241.357C883.292 239.688 883.99 239.275 885.056 238.144C885.938 237.209 892.482 232.091 893.217 232.098C899.306 232.156 906.815 232.218 912.795 232.266C908.807 231.915 904.821 231.536 900.838 231.131C915.846 230.145 942.457 231.154 958.096 231.306C960.582 226.426 964.7 218.313 966.232 213.257L966.656 213.01Z"/><path fill="#A56448" transform="scale(0.958333 0.958333)" d="M761.316 242.333C772.069 243.507 786.431 242.758 797.505 242.652C839.657 242.25 881.925 243.011 924.062 242.507C921.325 248.673 918.383 254.747 915.241 260.717L812.386 260.571C793.976 260.558 772.734 260.061 754.523 260.712C753.168 258.514 759.876 245.45 761.316 242.333Z"/><path fill="#DCB29A" transform="scale(0.958333 0.958333)" d="M917.433 268.479C909.362 268.382 900.455 272.263 890.481 270.933L890.374 270.4C897.499 269.168 907.043 266.963 914.304 265.037C914.3 265.038 916.398 262.906 916.844 262.779C918.353 262.348 916.618 263.443 920.935 264.641L920.219 266.899L919.602 266.874L918.966 265.647C918.001 266.109 917.646 267.404 917.433 268.479Z"/><path fill="#A56448" transform="scale(0.958333 0.958333)" d="M919.563 182.705C922.688 183.77 926.941 182.247 929.108 183.775C929.466 185.964 926.929 189.93 926.994 190.023C930.301 194.721 934.115 199.508 938.106 203.625C941.162 206.778 947.616 203.606 950.912 205.156C950.216 206.018 948.743 206.104 947.432 206.42L947.536 207.194C950.633 208.757 954.108 209.537 956.907 211.858C957.709 212.522 964.615 210.922 966.656 213.01L966.232 213.257L895.139 213.243L887.454 212.354C883.016 209.158 879.24 205.98 875.556 201.923L778.191 202.047C780.789 196.64 782.424 189.946 785.941 185.147C787.066 183.612 789.04 183.935 791.017 183.837C801.633 184.492 814.332 184.266 825.07 183.973C851.722 183.244 879.272 184.618 905.845 183.716L906.17 183.324C907.868 182.439 911.538 182.778 913.636 182.819L919.563 182.705Z"/><defs><linearGradient id="gradient_5" gradientUnits="userSpaceOnUse" x1="924.42957" y1="189.37062" x2="909.9375" y2="221.57768"><stop offset="0" stop-color="#C7A680"/><stop offset="1" stop-color="#EEDBB7"/></linearGradient></defs><path fill="url(#gradient_5)" transform="scale(0.958333 0.958333)" d="M919.563 182.705C922.688 183.77 926.941 182.247 929.108 183.775C929.466 185.964 926.929 189.93 926.994 190.023C930.301 194.721 934.115 199.508 938.106 203.625C941.162 206.778 947.616 203.606 950.912 205.156C950.216 206.018 948.743 206.104 947.432 206.42L947.536 207.194C950.633 208.757 954.108 209.537 956.907 211.858C957.709 212.522 964.615 210.922 966.656 213.01L966.232 213.257L895.139 213.243L887.454 212.354C883.016 209.158 879.24 205.98 875.556 201.923L920.04 201.954C922.824 196.667 925.981 189.335 928.574 183.786C921.43 183.857 912.869 184.157 905.845 183.716L906.17 183.324C907.868 182.439 911.538 182.778 913.636 182.819L919.563 182.705Z"/><path fill="#A56448" transform="scale(0.958333 0.958333)" d="M895.139 213.243L966.232 213.257C964.7 218.313 960.582 226.426 958.096 231.306C942.457 231.154 915.846 230.145 900.838 231.131L765.987 231.06C768.483 225.101 771.082 219.186 773.781 213.316L895.139 213.243Z"/><path fill="#316791" transform="scale(0.958333 0.958333)" d="M771.688 309.952C774.743 314.551 780.359 318.949 778.746 324.369C772.296 341.915 770.438 355.26 778.334 373.156C783.853 385.665 794.675 395.778 807.473 400.652C811.195 402.07 819.313 403.531 821.091 404.246C822.73 405.384 823.701 405.303 825.612 405.472C829.459 408.047 829.811 414.815 830.388 419.196L832.443 419.732C827.106 420.487 821.089 419.85 815.779 419.2L811.275 418.339C785.681 411.027 766.058 392.547 759.838 366.22C756.446 351.862 758.182 329.953 766.175 317.279C768.512 315.932 770.233 312.384 771.688 309.952Z"/><path fill="#43485A" transform="scale(0.958333 0.958333)" d="M728.172 429.526C729.557 427.308 737.299 418.67 739.374 416.282L761.148 391.038C764.055 395.731 767.91 399.34 770.263 404.132C770.793 405.21 769.597 406.357 768.799 407.497L769.917 407.775L771.553 406.743C772.925 407.122 774.892 409.161 776.75 410.208C777.245 413.722 772.438 415.191 771.178 418.327C770.962 418.866 769.611 419.897 769.086 420.308C769.31 421.393 769.026 421.022 769.678 421.69C759.789 433.806 748.619 445.984 739.059 458.098L738.27 459.059C735.41 459.272 727.3 459.817 725.063 458.073C722.607 458.745 706.84 458.398 703.368 458.393L707.319 453.687C711.361 448.049 723.148 435.03 728.172 429.526Z"/><path fill="#A4CAD1" transform="scale(0.958333 0.958333)" d="M768.799 407.497L769.917 407.775L771.553 406.743C772.925 407.122 774.892 409.161 776.75 410.208C777.245 413.722 772.438 415.191 771.178 418.327C770.962 418.866 769.611 419.897 769.086 420.308C769.31 421.393 769.026 421.022 769.678 421.69C759.789 433.806 748.619 445.984 739.059 458.098L738.27 459.059C735.41 459.272 727.3 459.817 725.063 458.073C730.727 451.608 736.915 444.802 742.217 438.092C747.08 434.059 761.986 414.205 768.799 407.497Z"/><path fill="#153B5C" transform="scale(0.958333 0.958333)" d="M728.172 429.526L728.5 430.705C725.405 434.633 722.753 437.595 719.465 441.364C721.305 443.435 727.185 450.66 729.435 450.86C733.635 447.577 738.614 438.337 742.217 438.092C736.915 444.802 730.727 451.608 725.063 458.073C722.607 458.745 706.84 458.398 703.368 458.393L707.319 453.687C711.361 448.049 723.148 435.03 728.172 429.526Z"/><path fill="#43485A" transform="scale(0.958333 0.958333)" d="M693.436 428.621C699.18 420.929 708.13 411.084 714.505 403.709L750.666 361.87C752.233 368.892 753.676 373.805 756.027 380.629C741.305 397.641 723.258 420.209 708.347 436.15C705.013 440.328 701.603 444.445 698.118 448.499C695.076 451.875 692.524 454.841 689.683 458.388C686.538 458.379 670.405 458.715 668.795 457.803C669.888 456.214 670.636 455.188 671.872 453.698C678.604 445.616 686.326 436.247 693.436 428.621Z"/><path fill="#153B5C" transform="scale(0.958333 0.958333)" d="M693.436 428.621C692.06 437.005 670.534 449.514 675.307 457.334C693.524 460.369 696.702 446.919 707.867 435.027L708.347 436.15C705.013 440.328 701.603 444.445 698.118 448.499C695.076 451.875 692.524 454.841 689.683 458.388C686.538 458.379 670.405 458.715 668.795 457.803C669.888 456.214 670.636 455.188 671.872 453.698C678.604 445.616 686.326 436.247 693.436 428.621Z"/><path fill="#645359" transform="scale(0.958333 0.958333)" d="M661.906 570.568C664.444 570.64 674.416 572.602 677.607 573.194L679.068 575.011C685.893 574.622 693.222 573.411 700.061 572.79C702.784 572.542 704.235 571.745 706.772 571.912L707.167 575.363L706.66 575.816C705.937 576.473 705.854 576.656 705.341 577.519C705.857 586.748 708.749 599.187 711.518 608.014C712.427 610.913 711.772 614.303 713.711 617.458C720.039 620.782 716.909 624.495 718.852 631.259L719.31 631.505C721.269 630.861 720.427 630.906 722.534 631.46C725.295 635.472 722.959 661.267 725.305 667.149C725.841 668.496 726.563 670.556 726.602 672.003C723.877 672.503 726.332 669.723 723.714 672.345L723.785 673.656C738.601 674.595 755.454 673.367 770.485 673.873C774.741 674.016 783.1 673.594 786.96 674.166C777.313 675.241 766.688 673.798 757.656 674.898C750.553 675.427 737.559 675.067 730.063 675.073L677.625 675.092C622.855 674.474 567.423 675.708 512.736 674.775C511.225 674.576 509.958 674.448 508.644 673.599C526.567 675.083 552.512 673.743 571.149 674.115C580.758 674.308 607.749 674.721 616.214 673.818L616.228 672.346C615.055 670.975 613.954 669.608 612.439 668.601C618.948 663.755 614.388 656.74 617.642 647.616C623.047 644.566 617.549 643.83 620.03 639.77C621.036 639.989 621.606 639.918 622.616 639.882C622.69 639.028 622.014 634.849 621.853 633.738C623.918 630.379 625.285 632.769 627.818 629.378L627.081 624.836C628.518 623.555 627.887 623.922 630.349 623.966C629.497 621.909 628.956 621.601 629.362 619.7C630.843 619.043 631.072 618.95 632.345 617.971C632.051 616.757 631.906 616.425 632.022 615.144C637.152 615.027 632.616 613.616 634.181 610.211C635.06 610.048 635.473 610.067 636.341 610.276C637.152 608.054 637.104 607.019 638.716 605.703L639.155 607.035C641.088 604.127 638.813 605.427 640.394 602.435L641.892 603.787C644.113 601.342 642.484 598.516 644.525 595.262C646.038 595.408 645.977 595.399 647.457 595.017C651.085 588.78 657.214 580.585 660.115 574.097C660.401 573.458 660.254 572.894 661.208 571.104L661.626 571.547L661.906 570.568Z"/><path fill="#767688" transform="scale(0.958333 0.958333)" d="M616.934 520.367C619.84 509.224 630.57 502.318 638.272 495.082C647.097 486.792 651.807 480.367 662.675 474.587C663.056 473.529 662.82 472.944 662.615 471.821L662.527 471.358C664.124 470.129 688.576 468.117 693.266 467.181L694.093 467.933L694.153 467.09L694.436 467.59L691.651 469.323C700.53 466.251 698.018 469.1 703.942 469.126C721.774 469.206 741.74 473.399 758.892 468.031C762.115 467.022 766.975 463.88 769.58 461.867C778.406 455.043 785.225 446.168 793.705 438.998C794.924 437.966 799.178 435.04 800.465 434.432C799.577 434.851 801.495 431.026 801.634 430.724L798.885 430.534L799.546 429.522C799.836 429.601 800.127 429.679 800.417 429.758C805.742 429.011 809.683 433.071 814.841 432.445L814.807 433.406C809.55 434.622 803.265 436.154 799.467 440.006C785.522 454.154 775.593 472.131 758.51 483.392C755.202 485.573 755.004 485.096 753.057 488.933L752.613 489.003C742.359 490.684 752.202 494.562 743.625 496.708C743.757 499.465 744.099 498.617 742.757 500.365C742.067 500.229 741.61 500.126 740.935 499.931C740.116 500.912 739.211 501.955 738.838 503.108C737.412 507.525 732.55 509.834 729.591 513.161C728.185 514.742 729.523 517.285 728.407 519.063C726.991 521.32 724.783 521.2 723.089 523.825C721.864 525.724 721.022 528.223 719.959 530.028C713.501 541 708.911 553.207 706.324 565.665C705.926 567.581 706.436 569.925 706.772 571.912C704.235 571.745 702.784 572.542 700.061 572.79C693.222 573.411 685.893 574.622 679.068 575.011L677.607 573.194C674.416 572.602 664.444 570.64 661.906 570.568L662.56 567.948C664.485 566.83 664.468 567.942 665.707 566.022C665.099 564.491 664.577 563.695 664.808 562.139L667.143 561.217C669.076 556.822 671.058 552.175 673.505 548.078C672.951 549.006 675.917 533.919 675.913 534.116L675.923 533.352C677.652 532.959 677.393 533.269 678.57 532.232C679.083 525.957 674.771 523.271 679.144 518.789C678.747 513.03 676.967 502.074 674.32 497.062C672.597 495.866 670.381 495.917 670.505 496.087C660.831 481.947 641.363 500.531 632.042 507.537C626.575 511.646 624.053 515.853 616.934 520.367Z"/><path fill="#9CAFBD" transform="scale(0.958333 0.958333)" d="M921.146 457.729L921.66 456.669C921.7 446.441 899.482 419.644 892.521 411.682C890.96 409.896 888.834 405.811 888.871 403.228C889.085 388.442 899.209 376.434 900.606 360.679C902.755 340.196 900.628 322.64 889.039 305.243C887.747 303.303 880.485 294.186 880.071 293.211C882.851 292.863 887.788 296.874 891.059 298.067C890.763 300 906.212 329.999 907.037 335.382C907.723 339.855 905.23 342.985 907.19 346.782C909.791 352.719 905.403 371.833 904.634 379.682L903.413 378.731C901.767 381.304 896.188 399.885 896.086 404.263C897.773 408.875 906.666 416.644 910.057 420.34C928.979 440.965 949.046 487.86 903.396 488.839C885.729 489.218 863.726 448.766 855.701 434.915C850.203 425.423 845.305 428.527 835.122 430.539C830.439 428.851 825.127 429.731 821.553 433.317L819.931 434.511C818.216 434.177 816.508 433.808 814.807 433.406L814.841 432.445C809.683 433.071 805.742 429.011 800.417 429.758C800.127 429.679 799.836 429.601 799.546 429.522L798.885 430.534L801.634 430.724C801.495 431.026 799.577 434.851 800.465 434.432C799.178 435.04 794.924 437.966 793.705 438.998C785.225 446.168 778.406 455.043 769.58 461.867C766.975 463.88 762.115 467.022 758.892 468.031C741.74 473.399 721.774 469.206 703.942 469.126C698.018 469.1 700.53 466.251 691.651 469.323L694.436 467.59L694.153 467.09L694.093 467.933L693.266 467.181C688.576 468.117 664.124 470.129 662.527 471.358L662.615 471.821C662.82 472.944 663.056 473.529 662.675 474.587C651.807 480.367 647.097 486.792 638.272 495.082C630.57 502.318 619.84 509.224 616.934 520.367C612.497 524.033 607.852 528.167 603.058 531.252L600.346 530.612L599.716 531.159L600.888 531.845L600.639 532.568C598.785 532.172 592.641 530.622 591.225 531.501C587.463 533.837 588.423 537.725 583.721 538.052L584.388 536.81C584.942 536.729 585.803 536.443 586.187 536.011C605.676 514.14 624.034 489.846 644.117 468.569L644.409 469.121C641.481 473.938 630.993 485.138 626.686 490.9L627.005 491.314C630.369 489.648 645.248 471.202 649.802 466.608C658.968 457.363 663.853 459.68 671.872 453.698C670.636 455.188 669.888 456.214 668.795 457.803C670.405 458.715 686.538 458.379 689.683 458.388C692.524 454.841 695.076 451.875 698.118 448.499L697.879 449.098C696.702 451.985 695.941 452.782 693.884 455.125C694.608 456.384 694.041 455.793 695.263 456.215C700.852 458.149 702.64 456.862 707.319 453.687L703.368 458.393C706.84 458.398 722.607 458.745 725.063 458.073C727.3 459.817 735.41 459.272 738.27 459.059L739.059 458.098C748.619 445.984 759.789 433.806 769.678 421.69C771.059 420.503 777.078 413.422 778.631 411.659C783.098 415.279 787.334 417.184 791.946 420.425C792.436 421.631 792.03 421.132 793.407 421.771C797.178 421.336 809.044 420.443 811.275 418.339L815.779 419.2C821.089 419.85 827.106 420.487 832.443 419.732C835.465 419.515 839.259 418.777 842.308 418.273C850.542 423.47 855.287 414.778 858.715 429.276C859.876 434.185 864.557 444.803 869.449 446.915C871.275 449.718 882.827 463.075 885.429 465.616L886.401 465.413L887.495 463.304L888.765 463.528C892.121 464.187 901.088 475.129 902.873 478.569C903.647 480.062 909.379 479.37 911.749 480.341C921.899 478.547 926.321 466.654 921.146 457.729Z"/><defs><linearGradient id="gradient_6" gradientUnits="userSpaceOnUse" x1="782.13727" y1="414.84311" x2="748.46063" y2="461.81012"><stop offset="0" stop-color="#6C4A45"/><stop offset="1" stop-color="#1B4162"/></linearGradient></defs><path fill="url(#gradient_6)" transform="scale(0.958333 0.958333)" d="M778.631 411.659C783.098 415.279 787.334 417.184 791.946 420.425C783.401 430.867 774.752 441.224 766 451.494L760.242 458.256C753.457 458.209 745.761 458.344 739.059 458.098C748.619 445.984 759.789 433.806 769.678 421.69C771.059 420.503 777.078 413.422 778.631 411.659Z"/><path fill="#A4CAD1" transform="scale(0.958333 0.958333)" d="M811.275 418.339L815.779 419.2C810.054 423.349 803.033 422.101 797.213 426.158C792.082 429.735 770.439 451.38 768.633 452.015L766 451.494C774.752 441.224 783.401 430.867 791.946 420.425C792.436 421.631 792.03 421.132 793.407 421.771C797.178 421.336 809.044 420.443 811.275 418.339Z"/><path fill="#153B5C" transform="scale(0.958333 0.958333)" d="M888.765 463.528C892.121 464.187 901.088 475.129 902.873 478.569C903.647 480.062 909.379 479.37 911.749 480.341C899.937 482.379 892.934 473.683 888.765 463.528Z"/><path fill="#939B92" transform="scale(0.958333 0.958333)" d="M756.216 68.3335C764.576 67.9595 776.669 67.6714 784.886 68.1511C824.158 70.4435 881.531 61.2404 916.28 79.7273C911.432 80.1355 866.461 62.8823 860.774 71.7362C856.211 78.8392 844.783 112.669 839.567 122.519C839.711 122.248 836.99 138.861 835.065 140.062C831.564 141.714 831.856 145.579 832.044 150.714C832.788 170.974 870.162 171.744 885.015 174.264C897.909 176.451 907.638 173.729 919.563 182.705L913.636 182.819C911.538 182.778 907.868 182.439 906.17 183.324L905.845 183.716C879.272 184.618 851.722 183.244 825.07 183.973C814.332 184.266 801.633 184.492 791.017 183.837C794.795 182.061 812.075 183.832 817.901 182.93C810.339 182.43 800.08 180.715 794.333 175.548L793.784 175.05C792.231 170.328 792.19 167.847 791.53 162.944C791.513 164.597 791.823 166.116 790.552 167.122C789.268 164.992 789.723 165.033 789.77 162.123L788.76 163.381L790.987 157.798L790.875 158.683C792.22 156.265 797.962 137.104 798.927 133.744L799.941 138.241C802.827 130.484 801.178 127.29 802.066 119.774C802.468 116.374 808.378 107.209 807.508 103.689C808.432 100.09 810.917 94.7756 812.444 91.2207C808.764 95.3045 804.854 100.193 801.286 104.449L800.911 103.478C802.521 101.112 809.988 90.4191 812.545 91.0889C812.868 94.4723 809.92 99.5289 810.645 100.636C814.259 106.147 816.974 107.796 816.968 114.942C816.648 112.195 816.58 111.417 816.813 108.654L817.434 108.391L818.658 113.235C819.503 111.917 819.347 112.623 819.088 111.037L821.27 110.884C823.029 105.297 826.293 100.212 828.509 94.9477C830.068 90.69 830.108 84.9496 831.844 80.8548C833.166 77.7368 833.313 73.1508 832.546 69.8811L833.978 69.5361C832.449 67.7686 761.023 70.8958 756.216 68.3335Z"/><path fill="#BBBBAD" transform="scale(0.958333 0.958333)" d="M793.784 175.05C792.231 170.328 792.19 167.847 791.53 162.944C791.513 164.597 791.823 166.116 790.552 167.122C789.268 164.992 789.723 165.033 789.77 162.123L788.76 163.381L790.987 157.798L790.875 158.683C792.22 156.265 797.962 137.104 798.927 133.744L799.941 138.241C796.458 151.404 792.144 159.435 796.162 173.672C804.269 178.807 807.07 177.785 816.481 176.647C820.179 176.2 820.757 176.039 819.292 179.553L820.569 179.409L821.354 177.653L822.531 177.727L822.814 179.373C842.585 180.46 898.204 176.29 913.636 182.819C911.538 182.778 907.868 182.439 906.17 183.324L905.845 183.716C879.272 184.618 851.722 183.244 825.07 183.973C814.332 184.266 801.633 184.492 791.017 183.837C794.795 182.061 812.075 183.832 817.901 182.93C810.339 182.43 800.08 180.715 794.333 175.548L793.784 175.05Z"/><path fill="#A8918C" transform="scale(0.958333 0.958333)" d="M821.553 433.317C825.127 429.731 830.439 428.851 835.122 430.539C831.223 433.859 826.57 435.648 821.553 433.317Z"/><path fill="#4BA0C5" transform="scale(0.958333 0.958333)" d="M470.35 72.3072C486.56 66.2856 529.82 67.9133 549.188 67.9651L608.159 68.0386C657.208 68.0572 707.221 67.6472 756.216 68.3335C761.023 70.8958 832.449 67.7686 833.978 69.5361L832.546 69.8811C833.313 73.1508 833.166 77.7368 831.844 80.8548C830.108 84.9496 830.068 90.69 828.509 94.9477C826.293 100.212 823.029 105.297 821.27 110.884L819.088 111.037C819.347 112.623 819.503 111.917 818.658 113.235L817.434 108.391L816.813 108.654C816.58 111.417 816.648 112.195 816.968 114.942C816.974 107.796 814.259 106.147 810.645 100.636C809.92 99.5289 812.868 94.4723 812.545 91.0889C809.988 90.4191 802.521 101.112 800.911 103.478L801.286 104.449C804.854 100.193 808.764 95.3045 812.444 91.2207C810.917 94.7756 808.432 100.09 807.508 103.689C808.378 107.209 802.468 116.374 802.066 119.774C801.178 127.29 802.827 130.484 799.941 138.241L798.927 133.744L798.99 126.267C796.534 131.839 788.218 153.348 785.172 155.76C781.7 162.667 776.755 176.593 773.542 181.988C771.97 187.281 768.954 193.224 766.837 198.406C756.781 223.032 745.557 247.414 735.674 272.088C761.872 271.818 788.072 271.686 814.272 271.69C807.326 274.56 800.337 277.321 793.306 279.972C788.971 282.482 780.814 288.324 777.858 289.846C775.161 293.624 771.101 296.684 768.309 300.279C763.066 307.03 758.465 315.305 755.009 323.098C752.915 330.609 751.544 335.596 751.079 343.43C726.462 372.969 700.349 401.872 675.6 431.337C665.707 443.117 653.404 456.612 644.117 468.569C624.034 489.846 605.676 514.14 586.187 536.011C585.803 536.443 584.942 536.729 584.388 536.81L583.721 538.052C583.14 535.898 584.316 534.376 585.46 532.243C588.677 526.09 581.545 523.015 583.646 515.925C585.496 509.679 586.347 504.227 589.096 498.108C590.542 490.971 600.008 478.176 588.046 473.191C585.913 473.24 586.417 472.895 585.298 474.058L584.732 473.25C585.173 471.12 584.998 470.515 584.549 468.462L584.412 467.849C589.419 466.155 591.507 465.97 595.058 461.973C584.659 460.64 558.534 461.949 552.692 460.469C555.822 459.88 558.965 459.362 562.118 458.915C539.344 457.445 509.18 459.476 485.406 458.779L484.813 457.667L484.306 457.457C481.065 451.826 489.752 439.197 494.588 435.601C502.956 429.378 516.008 419.887 502.623 411.061C491.628 412.025 469.047 409.905 458.06 407.553C456.31 407.179 456.952 404.939 454.755 403.392C451.654 403.397 452.008 403.566 450.108 401.231C449.544 399.689 449.488 399.3 449.24 397.665C452.203 391.677 451.939 384.479 457.229 379.616C470.992 366.966 547.739 368.899 558.276 354.637C561.965 349.644 559.927 343.561 559.62 337.995C559.449 334.903 559.659 331.833 559.295 328.743C556.778 307.38 520.339 310.932 505.167 298.9C500.616 295.291 498.063 290.266 497.441 284.522C496.874 279.201 497.728 273.825 499.916 268.942C508.459 249.874 526.689 255.055 539.577 243.298C542.378 239.811 541.013 231.593 540.601 227.198C539.261 212.873 543.814 200.983 548.798 187.626C551.65 179.985 540.575 166.998 536.694 160.667C532.965 154.582 530.97 144.112 528.659 137.319C526.511 131.01 524.03 126.095 522.421 119.713C520.834 113.292 519.829 106.858 518.853 100.344C515.444 93.214 510.694 70.3562 523.803 69.3863C512.712 68.0275 496.614 69.0117 485.44 70.632C482.296 71.0879 472.763 73.4329 470.35 72.3072Z"/><path fill="#153B5C" transform="scale(0.958333 0.958333)" d="M801.286 104.449C804.854 100.193 808.764 95.3045 812.444 91.2207C810.917 94.7756 808.432 100.09 807.508 103.689C808.378 107.209 802.468 116.374 802.066 119.774C801.178 127.29 802.827 130.484 799.941 138.241L798.927 133.744L798.99 126.267C796.534 131.839 788.218 153.348 785.172 155.76C781.7 162.667 776.755 176.593 773.542 181.988C771.97 187.281 768.954 193.224 766.837 198.406C756.781 223.032 745.557 247.414 735.674 272.088C761.872 271.818 788.072 271.686 814.272 271.69C807.326 274.56 800.337 277.321 793.306 279.972C788.971 282.482 780.814 288.324 777.858 289.846C775.161 293.624 771.101 296.684 768.309 300.279C763.066 307.03 758.465 315.305 755.009 323.098C752.915 330.609 751.544 335.596 751.079 343.43C726.462 372.969 700.349 401.872 675.6 431.337C665.707 443.117 653.404 456.612 644.117 468.569C624.034 489.846 605.676 514.14 586.187 536.011C585.803 536.443 584.942 536.729 584.388 536.81L583.721 538.052C583.14 535.898 584.316 534.376 585.46 532.243C588.677 526.09 581.545 523.015 583.646 515.925C585.496 509.679 586.347 504.227 589.096 498.108C590.542 490.971 600.008 478.176 588.046 473.191C585.913 473.24 586.417 472.895 585.298 474.058L584.732 473.25C585.173 471.12 584.998 470.515 584.549 468.462L584.412 467.849C589.419 466.155 591.507 465.97 595.058 461.973C604.97 456.371 607.888 466.504 609.132 473.766L609.958 473.501C610.167 472.164 610.242 471.327 610.734 470.041L611.816 470.717C612.303 473.533 611.533 475.847 609.917 478.162C609.362 480.785 608.879 481.914 610.036 484.382C622.741 461.713 637.391 429.807 649.122 406.166C661.788 380.638 677.279 350.917 688.666 325.296C674.968 325.147 661.27 325.102 647.572 325.16C636.89 324.886 625.38 325.173 614.635 325.261C616.256 323.378 617.596 321.605 619.09 319.626C623.242 315.274 629.361 307.416 633.552 302.523C645.829 288.275 657.96 273.903 669.945 259.408C675.389 252.864 682.831 243.432 688.631 237.506C690.776 234.362 696.55 228.037 699.287 224.847L720.421 200.193C740.037 177.153 759.499 153.983 778.805 130.683C780.822 129.591 798.036 108.326 801.286 104.449Z"/><path fill="#645359" transform="scale(0.958333 0.958333)" d="M801.286 104.449C804.854 100.193 808.764 95.3045 812.444 91.2207C810.917 94.7756 808.432 100.09 807.508 103.689C808.378 107.209 802.468 116.374 802.066 119.774C801.178 127.29 802.827 130.484 799.941 138.241L798.927 133.744L798.99 126.267C796.534 131.839 788.218 153.348 785.172 155.76C781.7 162.667 776.755 176.593 773.542 181.988C771.97 187.281 768.954 193.224 766.837 198.406C756.781 223.032 745.557 247.414 735.674 272.088C761.872 271.818 788.072 271.686 814.272 271.69C807.326 274.56 800.337 277.321 793.306 279.972C789.873 279.899 783.978 279.252 781.012 279.541C764.294 281.172 747.577 280.415 730.888 280.952C729.065 280.652 721.988 280.658 719.663 280.626C721.917 274.897 724.992 269.76 726.782 263.659L726.121 263.094C727.043 258.283 733.973 247.002 733.911 244.184L731.42 244.116C730.313 242.676 730.562 236.607 730.517 234.368C728.011 238.065 725.711 243.573 723.103 246.719L722 246.619L723.519 242.915C722.994 238.454 726.764 237.064 727.823 232.737L726.082 232.18C730.327 225.222 740.97 211.443 743.868 204.623C743.485 201.237 747.685 192.893 748.935 189.365L745.577 193.786L744.444 193.422C745.94 191.428 746.907 190.027 748.209 187.903L747.797 186.447L713.276 226.649C710.056 230.405 699.755 242.884 696.428 245.899C696.356 242.627 721.803 214.372 725.718 210.145C725.239 205.531 724.917 201.609 724.725 196.974C715.133 209.029 701.025 225.073 690.431 236.954C689.718 237.173 689.119 237.357 688.631 237.506C690.776 234.362 696.55 228.037 699.287 224.847L720.421 200.193C740.037 177.153 759.499 153.983 778.805 130.683C780.822 129.591 798.036 108.326 801.286 104.449Z"/><path fill="#316791" transform="scale(0.958333 0.958333)" d="M801.286 104.449C804.854 100.193 808.764 95.3045 812.444 91.2207C810.917 94.7756 808.432 100.09 807.508 103.689C808.378 107.209 802.468 116.374 802.066 119.774C801.178 127.29 802.827 130.484 799.941 138.241L798.927 133.744L798.99 126.267C796.534 131.839 788.218 153.348 785.172 155.76C781.7 162.667 776.755 176.593 773.542 181.988C773.145 173.433 792.556 141.567 793.076 132.572C790.052 133.254 780.463 144.805 778.234 147.921C775.471 151.785 767.962 170.719 764.917 172.577C761.991 176.74 760.421 180.025 758.136 184.558L757.235 185.018C754.763 186.447 747.241 200.388 743.868 204.623C743.485 201.237 747.685 192.893 748.935 189.365L745.577 193.786L744.444 193.422C745.94 191.428 746.907 190.027 748.209 187.903L747.797 186.447L713.276 226.649C710.056 230.405 699.755 242.884 696.428 245.899C696.356 242.627 721.803 214.372 725.718 210.145C725.239 205.531 724.917 201.609 724.725 196.974C715.133 209.029 701.025 225.073 690.431 236.954C689.718 237.173 689.119 237.357 688.631 237.506C690.776 234.362 696.55 228.037 699.287 224.847L720.421 200.193C740.037 177.153 759.499 153.983 778.805 130.683C780.822 129.591 798.036 108.326 801.286 104.449Z"/><path fill="#4BA0C5" transform="scale(0.958333 0.958333)" d="M747.797 186.447C748.036 185.267 769.481 160.09 772.124 156.531C770.65 160.025 765.406 169.987 764.917 172.577C761.991 176.74 760.421 180.025 758.136 184.558L757.235 185.018C754.763 186.447 747.241 200.388 743.868 204.623C743.485 201.237 747.685 192.893 748.935 189.365L745.577 193.786L744.444 193.422C745.94 191.428 746.907 190.027 748.209 187.903L747.797 186.447Z"/><path fill="#A4CAD1" transform="scale(0.958333 0.958333)" d="M807.508 103.689C808.378 107.209 802.468 116.374 802.066 119.774C801.178 127.29 802.827 130.484 799.941 138.241L798.927 133.744L798.99 126.267C796.534 131.839 788.218 153.348 785.172 155.76C786.563 151.368 790.208 143.335 792.092 138.917L807.508 103.689Z"/><path fill="#A56448" transform="scale(0.958333 0.958333)" d="M758.136 184.558L759.498 184.339C760.391 188.914 731.624 254.415 726.782 263.659L726.121 263.094C727.043 258.283 733.973 247.002 733.911 244.184L731.42 244.116C730.313 242.676 730.562 236.607 730.517 234.368C728.011 238.065 725.711 243.573 723.103 246.719L722 246.619L723.519 242.915C722.994 238.454 726.764 237.064 727.823 232.737L726.082 232.18C730.327 225.222 740.97 211.443 743.868 204.623C747.241 200.388 754.763 186.447 757.235 185.018L758.136 184.558Z"/><path fill="#9CEBF0" transform="scale(0.958333 0.958333)" d="M743.868 204.623C747.241 200.388 754.763 186.447 757.235 185.018C755.508 188.865 725.23 241.444 723.519 242.915C722.994 238.454 726.764 237.064 727.823 232.737L726.082 232.18C730.327 225.222 740.97 211.443 743.868 204.623Z"/><path fill="#8D5039" transform="scale(0.958333 0.958333)" d="M722 246.619L723.103 246.719C725.711 243.573 728.011 238.065 730.517 234.368C730.562 236.607 730.313 242.676 731.42 244.116L733.911 244.184C733.973 247.002 727.043 258.283 726.121 263.094L726.782 263.659C724.992 269.76 721.917 274.897 719.663 280.626C721.988 280.658 729.065 280.652 730.888 280.952C747.577 280.415 764.294 281.172 781.012 279.541C783.978 279.252 789.873 279.899 793.306 279.972C788.971 282.482 780.814 288.324 777.858 289.846C775.161 293.624 771.101 296.684 768.309 300.279C763.066 307.03 758.465 315.305 755.009 323.098C751.81 324.061 740.429 338.314 737.528 341.676L687.587 399.329C681.775 406.027 668.959 421.735 663.192 427.167C662.343 429.189 661.333 429.996 659.808 431.515C657.32 434.666 653.422 438.527 651.385 441.278C646.07 448.147 637.91 457.828 632.018 464.435C635.462 457.227 639.744 450.028 643.718 443.068C646.795 439.123 650.547 431.34 654.125 428.202C654.053 428.795 654.016 428.485 654.321 429.116C670.119 406.168 685.473 382.111 701.691 359.554C704.363 355.828 706.481 352.566 708.909 348.676C711.926 344.947 717.714 335.765 720.599 331.493C729 319.139 737.294 306.712 745.478 294.213L737.804 293.995C732.511 292.948 705.333 291.629 699.298 291.455C699.936 288.841 700.223 286.252 700.577 283.586C706.765 272.737 715.371 256.676 722 246.619Z"/><path fill="#BA764F" transform="scale(0.958333 0.958333)" d="M730.888 280.952C747.577 280.415 764.294 281.172 781.012 279.541C783.978 279.252 789.873 279.899 793.306 279.972C788.971 282.482 780.814 288.324 777.858 289.846C775.161 293.624 771.101 296.684 768.309 300.279C763.066 307.03 758.465 315.305 755.009 323.098C751.81 324.061 740.429 338.314 737.528 341.676L687.587 399.329C681.775 406.027 668.959 421.735 663.192 427.167C663.069 425.482 665.664 422.13 666.778 420.242C666.978 420.151 737.135 333.254 743.793 324.374C745.369 318.725 756.141 310.142 758.158 304.342C758.609 303.044 752.532 293.207 751.655 291.036C750.25 287.561 750.893 287.548 751.537 283.67C751.356 283.373 750.452 281.886 750.452 281.886C745.762 280.85 735.179 282.21 730.888 280.952Z"/><path fill="#A56448" transform="scale(0.958333 0.958333)" d="M730.888 280.952C747.577 280.415 764.294 281.172 781.012 279.541C783.978 279.252 789.873 279.899 793.306 279.972C788.971 282.482 780.814 288.324 777.858 289.846C778.768 286.427 783.906 285.018 785.572 282.235C777.625 278.091 750.035 318.66 743.793 324.374C745.369 318.725 756.141 310.142 758.158 304.342C758.609 303.044 752.532 293.207 751.655 291.036C750.25 287.561 750.893 287.548 751.537 283.67C751.356 283.373 750.452 281.886 750.452 281.886C745.762 280.85 735.179 282.21 730.888 280.952Z"/><path fill="#316791" transform="scale(0.958333 0.958333)" d="M654.125 428.202C654.053 428.795 654.016 428.485 654.321 429.116C670.119 406.168 685.473 382.111 701.691 359.554C698.518 371.72 692.631 375.543 685.968 385.564C674.817 402.334 663.211 418.842 652.242 435.717C650.417 438.535 647.074 442.479 646.064 445.166L646.623 445.175C647.632 443.221 648.171 442.767 649.947 441.477L651.385 441.278C646.07 448.147 637.91 457.828 632.018 464.435C635.462 457.227 639.744 450.028 643.718 443.068C646.795 439.123 650.547 431.34 654.125 428.202Z"/><path fill="#645359" transform="scale(0.958333 0.958333)" d="M659.808 431.515C659.514 430.916 659.221 429.971 658.99 429.314C660.647 426.295 663.736 421.907 666.778 420.242C665.664 422.13 663.069 425.482 663.192 427.167C662.343 429.189 661.333 429.996 659.808 431.515Z"/><defs><linearGradient id="gradient_7" gradientUnits="userSpaceOnUse" x1="677.80566" y1="322.16373" x2="772.69855" y2="207.67964"><stop offset="0" stop-color="#1A73B2"/><stop offset="1" stop-color="#38BBE4"/></linearGradient></defs><path fill="url(#gradient_7)" transform="scale(0.958333 0.958333)" d="M747.797 186.447L748.209 187.903C746.907 190.027 745.94 191.428 744.444 193.422L745.577 193.786L748.935 189.365C747.685 192.893 743.485 201.237 743.868 204.623C740.97 211.443 730.327 225.222 726.082 232.18L727.823 232.737C726.764 237.064 722.994 238.454 723.519 242.915L722 246.619C715.371 256.676 706.765 272.737 700.577 283.586C700.223 286.252 699.936 288.841 699.298 291.455C705.333 291.629 732.511 292.948 737.804 293.995L745.478 294.213C737.294 306.712 729 319.139 720.599 331.493C717.714 335.765 711.926 344.947 708.909 348.676L708.38 348.615C707.435 346.635 712.934 342.923 713.139 339.417L711.978 338.436C709.177 339.294 709.932 341.393 707.047 342.366C709.257 337.964 714.388 330.051 717.118 325.556C714.919 318.857 705.446 327.571 706.303 315.059L695.973 315.043C688.713 314.069 674.521 313.384 667.212 313.442C664.286 310.28 659.98 306.9 657.446 303.518C658.606 302.012 659.122 301.447 659.292 299.531C660.253 297.919 662.481 295.986 663.898 293.549C661.324 292.812 660.289 291.451 659.638 289.057C664.49 283.251 671.883 273.918 676.893 268.911C682.834 261.139 690.114 253.553 696.428 245.899C699.755 242.884 710.056 230.405 713.276 226.649L747.797 186.447Z"/><defs><linearGradient id="gradient_8" gradientUnits="userSpaceOnUse" x1="750.24603" y1="253.97057" x2="689.59186" y2="317.07999"><stop offset="0" stop-color="#8AF1EE"/><stop offset="1" stop-color="#6DE4F9"/></linearGradient></defs><path fill="url(#gradient_8)" transform="scale(0.958333 0.958333)" d="M726.082 232.18L727.823 232.737C726.764 237.064 722.994 238.454 723.519 242.915L722 246.619C715.371 256.676 706.765 272.737 700.577 283.586C700.223 286.252 699.936 288.841 699.298 291.455C705.333 291.629 732.511 292.948 737.804 293.995L745.478 294.213C737.294 306.712 729 319.139 720.599 331.493C717.714 335.765 711.926 344.947 708.909 348.676L708.38 348.615C707.435 346.635 712.934 342.923 713.139 339.417L711.978 338.436C709.177 339.294 709.932 341.393 707.047 342.366C709.257 337.964 714.388 330.051 717.118 325.556C719.874 322.11 728.885 306.287 731.488 301.894L679.902 301.95C695.531 278.85 710.924 255.592 726.082 232.18Z"/><path fill="#664D48" transform="scale(0.958333 0.958333)" d="M700.577 283.586C700.223 286.252 699.936 288.841 699.298 291.455C705.333 291.629 732.511 292.948 737.804 293.995C723.369 294.128 708.933 294.182 694.497 294.158C696.41 290.317 698.338 287.227 700.577 283.586Z"/><path fill="#9CEBF0" transform="scale(0.958333 0.958333)" d="M747.797 186.447L748.209 187.903C746.907 190.027 745.94 191.428 744.444 193.422C740.286 197.899 734.369 205.969 730.362 211.12L701.166 248.634C695.664 255.608 688.455 264.996 682.285 271.296C679.823 270.892 682.887 271.556 679.835 268.366C678.449 268.481 679.036 268.218 678.028 269.204L676.893 268.911C682.834 261.139 690.114 253.553 696.428 245.899C699.755 242.884 710.056 230.405 713.276 226.649L747.797 186.447Z"/><path fill="#6FBEDF" transform="scale(0.958333 0.958333)" d="M676.893 268.911L678.028 269.204C679.036 268.218 678.449 268.481 679.835 268.366C682.887 271.556 679.823 270.892 682.285 271.296C677.602 277.9 669.299 287.249 663.898 293.549C661.324 292.812 660.289 291.451 659.638 289.057C664.49 283.251 671.883 273.918 676.893 268.911Z"/><defs><linearGradient id="gradient_9" gradientUnits="userSpaceOnUse" x1="643.30566" y1="430.07755" x2="711.30273" y2="320.70789"><stop offset="0" stop-color="#113B68"/><stop offset="1" stop-color="#207BB8"/></linearGradient></defs><path fill="url(#gradient_9)" transform="scale(0.958333 0.958333)" d="M706.303 315.059C705.446 327.571 714.919 318.857 717.118 325.556C714.388 330.051 709.257 337.964 707.047 342.366C709.932 341.393 709.177 339.294 711.978 338.436L713.139 339.417C712.934 342.923 707.435 346.635 708.38 348.615L708.909 348.676C706.481 352.566 704.363 355.828 701.691 359.554C685.473 382.111 670.119 406.168 654.321 429.116C654.016 428.485 654.053 428.795 654.125 428.202C650.547 431.34 646.795 439.123 643.718 443.068C644.8 435.69 664.664 398.175 668.963 389.627L706.303 315.059Z"/><path fill="#6FBEDF" transform="scale(0.958333 0.958333)" d="M707.047 342.366C709.932 341.393 709.177 339.294 711.978 338.436L713.139 339.417C712.934 342.923 707.435 346.635 708.38 348.615L708.909 348.676C706.481 352.566 704.363 355.828 701.691 359.554C685.473 382.111 670.119 406.168 654.321 429.116C654.016 428.485 654.053 428.795 654.125 428.202C655.903 424.207 661.861 414.742 664.446 410.435C672.55 397.026 680.781 383.695 689.137 370.442C692.387 365.236 704.42 345.341 707.047 342.366Z"/><defs><linearGradient id="gradient_10" gradientUnits="userSpaceOnUse" x1="582.93127" y1="484.5134" x2="610.08716" y2="471.86029"><stop offset="0" stop-color="#53769A"/><stop offset="1" stop-color="#7DBAE2"/></linearGradient></defs><path fill="url(#gradient_10)" transform="scale(0.958333 0.958333)" d="M595.058 461.973C604.97 456.371 607.888 466.504 609.132 473.766L609.958 473.501C610.167 472.164 610.242 471.327 610.734 470.041L611.816 470.717C612.303 473.533 611.533 475.847 609.917 478.162L609.7 477.892C608.621 476.523 608.198 475.685 607.38 474.151C604.522 476.609 603.38 487.119 598.418 493.162C597.475 490.782 597.893 490.67 595.992 489.519C594.012 490.643 591.584 496.195 590.002 498.907L589.096 498.108C590.542 490.971 600.008 478.176 588.046 473.191C585.913 473.24 586.417 472.895 585.298 474.058L584.732 473.25C585.173 471.12 584.998 470.515 584.549 468.462L584.412 467.849C589.419 466.155 591.507 465.97 595.058 461.973Z"/><path fill="#278ABD" transform="scale(0.958333 0.958333)" d="M589.096 498.108L590.002 498.907C591.584 496.195 594.012 490.643 595.992 489.519C597.893 490.67 597.475 490.782 598.418 493.162C594.587 497.875 588.988 512.374 593.573 517.45C591.099 523.18 587.33 531.231 584.388 536.81L583.721 538.052C583.14 535.898 584.316 534.376 585.46 532.243C588.677 526.09 581.545 523.015 583.646 515.925C585.496 509.679 586.347 504.227 589.096 498.108Z"/><path fill="#6FBEDF" transform="scale(0.958333 0.958333)" d="M598.418 493.162C603.38 487.119 604.522 476.609 607.38 474.151C608.198 475.685 608.621 476.523 609.7 477.892L609.917 478.162C609.362 480.785 608.879 481.914 610.036 484.382C605.594 494.637 598.754 507.377 593.573 517.45C588.988 512.374 594.587 497.875 598.418 493.162Z"/><path fill="#278ABD" transform="scale(0.958333 0.958333)" d="M637.993 314.963C644.736 306.724 652.529 296.83 659.638 289.057C660.289 291.451 661.324 292.812 663.898 293.549C662.481 295.986 660.253 297.919 659.292 299.531C655.054 304.515 650.305 310.379 645.897 315.114L637.993 314.963Z"/><path fill="#316791" transform="scale(0.958333 0.958333)" d="M659.292 299.531C659.122 301.447 658.606 302.012 657.446 303.518C659.98 306.9 664.286 310.28 667.212 313.442C674.521 313.384 688.713 314.069 695.973 315.043C684.282 316.004 658.742 315.154 645.897 315.114C650.305 310.379 655.054 304.515 659.292 299.531Z"/><defs><linearGradient id="gradient_11" gradientUnits="userSpaceOnUse" x1="518.15759" y1="395.3168" x2="680.49866" y2="406.22263"><stop offset="0" stop-color="#73BEEE"/><stop offset="1" stop-color="#A0EEF8"/></linearGradient></defs><path fill="url(#gradient_11)" transform="scale(0.958333 0.958333)" d="M647.572 325.16C661.27 325.102 674.968 325.147 688.666 325.296C677.279 350.917 661.788 380.638 649.122 406.166C637.391 429.807 622.741 461.713 610.036 484.382C608.879 481.914 609.362 480.785 609.917 478.162C611.533 475.847 612.303 473.533 611.816 470.717L610.734 470.041C610.242 471.327 610.167 472.164 609.958 473.501L609.132 473.766C607.888 466.504 604.97 456.371 595.058 461.973C584.659 460.64 558.534 461.949 552.692 460.469C555.822 459.88 558.965 459.362 562.118 458.915C539.344 457.445 509.18 459.476 485.406 458.779L484.813 457.667L484.306 457.457C481.065 451.826 489.752 439.197 494.588 435.601C502.956 429.378 516.008 419.887 502.623 411.061C491.628 412.025 469.047 409.905 458.06 407.553C456.31 407.179 456.952 404.939 454.755 403.392C451.654 403.397 452.008 403.566 450.108 401.231C452.618 395.656 456.482 388.618 459.327 383.05C465.38 383.114 472.74 383.301 478.655 382.756C475.694 382.655 474.366 382.647 471.496 381.972L472.075 381.632C484.36 383.271 511.555 381.806 524.329 381.025L524.204 380.781C507.648 380.289 488.901 380.7 472.181 380.718C483.987 378.177 492.527 378.483 504.164 377.418C522.141 375.774 540.917 375.68 558.696 374.474C582.025 372.891 599.989 370.476 623.81 372.158L623.101 372.217C633.282 374.34 647.569 372.318 653.451 362.711C670.026 335.639 637.58 341.713 632.516 337.502C633.363 336.833 654.175 335.929 657.211 335.621C641.223 333.338 627.994 335.774 615.185 325.949C620.125 325.813 644.957 326.216 647.572 325.16Z"/><path fill="#316791" transform="scale(0.958333 0.958333)" d="M478.655 382.756L594.248 382.812L627.732 382.736C632.461 382.721 641.942 382.467 646.358 383.019C644.682 387.098 640.196 396.735 637.943 400.691C630.657 401.691 604.226 401.006 595.639 401.009L505.165 401.152C498.957 401.17 475.299 400.805 470.938 401.834C468.51 401.962 467.329 402.143 464.932 401.475L463.617 402.48C470.634 404.3 482.819 401.802 486.808 403.431C487.245 404.354 487.93 406.342 488.646 406.434C493.173 407.01 509.335 406.67 512.264 409.581C509.119 412.067 505.118 409.517 502.623 411.061C491.628 412.025 469.047 409.905 458.06 407.553C456.31 407.179 456.952 404.939 454.755 403.392C451.654 403.397 452.008 403.566 450.108 401.231C452.618 395.656 456.482 388.618 459.327 383.05C465.38 383.114 472.74 383.301 478.655 382.756Z"/><path fill="#4BA0C5" transform="scale(0.958333 0.958333)" d="M481.529 400.314L586.081 400.461C600.155 400.485 624.42 399.746 637.943 400.691C630.657 401.691 604.226 401.006 595.639 401.009L505.165 401.152C498.957 401.17 475.299 400.805 470.938 401.834C468.51 401.962 467.329 402.143 464.932 401.475L463.617 402.48C470.634 404.3 482.819 401.802 486.808 403.431C487.245 404.354 487.93 406.342 488.646 406.434C493.173 407.01 509.335 406.67 512.264 409.581C509.119 412.067 505.118 409.517 502.623 411.061C491.628 412.025 469.047 409.905 458.06 407.553C456.31 407.179 456.952 404.939 454.755 403.392C451.654 403.397 452.008 403.566 450.108 401.231C461.22 400.168 471.387 401.222 481.529 400.314Z"/><path fill="#278ABD" transform="scale(0.958333 0.958333)" d="M478.655 382.756L594.248 382.812L627.732 382.736C632.461 382.721 641.942 382.467 646.358 383.019C591.647 384.689 536.121 381.965 481.334 384.032C476.279 384.222 470.153 383.593 465.292 384.418C467.337 388.798 465.267 396.276 461.722 399.288C466.371 401.383 478.869 398.258 481.529 400.314C471.387 401.222 461.22 400.168 450.108 401.231C452.618 395.656 456.482 388.618 459.327 383.05C465.38 383.114 472.74 383.301 478.655 382.756Z"/><defs><linearGradient id="gradient_12" gradientUnits="userSpaceOnUse" x1="615.59644" y1="442.75183" x2="486.84384" y2="455.94717"><stop offset="0" stop-color="#0E3C61"/><stop offset="1" stop-color="#195A8B"/></linearGradient></defs><path fill="url(#gradient_12)" transform="scale(0.958333 0.958333)" d="M573.16 440.962C588.141 441.138 603.123 441.178 618.105 441.082L609.068 458.834C594.068 458.832 576.947 458.465 562.118 458.915C539.344 457.445 509.18 459.476 485.406 458.779C487.806 453.089 491.508 446.577 494.474 441.048L573.16 440.962Z"/><path fill="#316791" transform="scale(0.958333 0.958333)" d="M561.973 412.067C583.862 412.261 610.745 412.772 632.393 411.808C629.51 417.887 626.524 423.917 623.438 429.895C591.28 429.892 554.139 430.812 522.338 429.651C525.579 423.937 527.724 417.929 531.441 412.2C541.618 412.228 551.796 412.184 561.973 412.067Z"/><defs><linearGradient id="gradient_13" gradientUnits="userSpaceOnUse" x1="469.98416" y1="429.07394" x2="532.43494" y2="413.83295"><stop offset="0" stop-color="#4D8BB7"/><stop offset="1" stop-color="#6EB7E2"/></linearGradient></defs><path fill="url(#gradient_13)" transform="scale(0.958333 0.958333)" d="M470.938 401.834C487.972 402.718 505.275 401.177 522.261 401.997C525.767 402.167 530.802 408.188 532.263 411.254C538.032 411.275 558.189 410.872 561.973 412.067C551.796 412.184 541.618 412.228 531.441 412.2C527.724 417.929 525.579 423.937 522.338 429.651L521.735 429.358L521.717 429.88C523.388 430.711 531.218 430.751 533.653 430.817L533.363 431.439C530.276 432.522 524.81 437.541 522.082 439.795C519.076 439.792 513.501 439.623 510.733 440.102C521.012 440.607 567.775 438.903 573.16 440.962L494.474 441.048C491.508 446.577 487.806 453.089 485.406 458.779L484.813 457.667L484.306 457.457C481.065 451.826 489.752 439.197 494.588 435.601C502.956 429.378 516.008 419.887 502.623 411.061C505.118 409.517 509.119 412.067 512.264 409.581C509.335 406.67 493.173 407.01 488.646 406.434C487.93 406.342 487.245 404.354 486.808 403.431C482.819 401.802 470.634 404.3 463.617 402.48L464.932 401.475C467.329 402.143 468.51 401.962 470.938 401.834Z"/><path fill="#9CEBF0" transform="scale(0.958333 0.958333)" d="M767.761 134.162C772.797 130.491 777.367 122.158 783.828 122.244C784.602 124.097 779.013 126.807 778.805 130.683C759.499 153.983 740.037 177.153 720.421 200.193L699.287 224.847C696.55 228.037 690.776 234.362 688.631 237.506C682.831 243.432 675.389 252.864 669.945 259.408C657.96 273.903 645.829 288.275 633.552 302.523C629.361 307.416 623.242 315.274 619.09 319.626C616.838 315.548 620.576 310.513 618.161 305.733L617.557 305.588C617.499 308.666 617.426 310.621 617.014 313.66C616.158 313.48 615.964 313.022 615.138 312.539C616.795 309.694 617.119 309.297 616.183 305.508L615.614 305.555C615.563 307.077 615.55 308.601 615.574 310.125L614.903 309.439C613.673 302.179 613.558 303.158 608.423 298.498C608.525 296.91 608.745 296.489 609.544 295.113C606.205 292.034 590.828 294.695 585.804 294.349C574.67 293.584 564.476 292.661 553.457 290.79C570.327 290.883 587.197 290.812 604.066 290.575C610.429 290.484 622.715 290.604 628.559 289.832C633.188 284.619 638.567 277.375 642.963 271.788C624.487 272.6 600.595 271.819 581.787 271.676C578.079 270.66 561.55 271.069 556.822 271.097C563.447 269.206 577.656 268.661 585.164 268.06L585.117 267.421L584.754 268.24L584.472 266.709C587.473 266.175 587.818 266.517 588.95 263.845L589.608 265.74L590.301 266.027C591.147 264.761 592.039 263.582 592.945 262.362C596.271 260.389 618.818 261.1 624.931 260.701C614.88 260.217 602.824 260.52 592.621 260.54C595.467 255.705 598.648 250.553 600.952 245.478C597.526 247.748 593.879 255.743 591.824 259.686L591.355 259.607C592.323 249.477 593.498 245.344 586.4 236.919C585.252 235.556 584.033 234.394 583.627 232.686C586.333 231.421 593.842 232.808 597.325 232.453C600.548 232.123 603.393 231.67 606.583 231.118C594.329 230.579 574.752 230.711 562.51 231.251C562.717 228.597 569.633 215.694 571.256 213.012L571.247 212.624L571.741 212.61C577.124 212.515 581.656 210.705 586.825 208.803L586.636 207.614C585.291 207.522 583.947 207.417 582.604 207.299C584.247 205.365 583.943 205.966 587.299 205.681L585.687 205.437C593.168 205.327 599.069 204.797 606.746 204.97L603.084 205.712C604.238 206.055 608.49 205.788 609.969 205.742L609.453 205.693C611.179 205.461 618.971 204.35 619.65 203.45C625.76 195.366 626.133 191.428 634.558 185.379C635.712 181.465 643.182 179.241 646.742 177.759C645.441 177.532 644.337 177.283 643.051 176.979C646.141 174.442 669.604 176.242 675.483 176.031L676.091 176.962L676.182 177.833C678.314 178.528 681.054 178.488 683.336 178.578C684.967 177.829 689.582 179.057 692.287 179.292L689.696 178.475C693.047 177.858 694.65 180.807 697.984 178.272C698.421 178.602 699.121 179.183 699.673 179.189C710.368 179.3 718.571 179.67 727.858 174.578L726.806 172.43C729.412 169.917 737.856 163.287 739.437 161.239C745.156 153.827 750.215 145.326 757.862 139.492C759.252 139.081 766.178 135.654 767.761 134.162Z"/><path fill="#4BA0C5" transform="scale(0.958333 0.958333)" d="M610.09 213.293C637.549 213.495 665.7 213.585 693.162 213.307L678.333 231.067L606.583 231.118C594.329 230.579 574.752 230.711 562.51 231.251C562.717 228.597 569.633 215.694 571.256 213.012C575.001 213.572 606.936 213.931 610.09 213.293Z"/><path fill="#4BA0C5" transform="scale(0.958333 0.958333)" d="M635.259 185.482C637.861 183.757 652.814 184.408 656.904 184.41L716.787 184.497C712.228 190.477 707.56 196.654 702.584 202.279C681.036 202.13 659.488 202.099 637.939 202.185C634.55 201.974 630.041 202.064 626.562 202.028C629.316 196.963 633.078 190.64 635.259 185.482Z"/><path fill="#278ABD" transform="scale(0.958333 0.958333)" d="M600.952 245.478C602.311 243.751 602.458 242.999 604.962 242.798C612.044 242.23 619.655 242.43 626.75 242.444C640.477 242.537 654.204 242.544 667.93 242.465L653.232 260.705C644.297 260.699 633.721 260.405 624.931 260.701C614.88 260.217 602.824 260.52 592.621 260.54C595.467 255.705 598.648 250.553 600.952 245.478Z"/><path fill="#6FBEDF" transform="scale(0.958333 0.958333)" d="M634.558 185.379C635.712 181.465 643.182 179.241 646.742 177.759C645.441 177.532 644.337 177.283 643.051 176.979C646.141 174.442 669.604 176.242 675.483 176.031L676.091 176.962L676.182 177.833C678.314 178.528 681.054 178.488 683.336 178.578L685.421 178.721L685.353 179.321L682.938 180.453L684.7 181.093C686.972 179.667 689.988 180.35 692.343 181.31L692.216 181.742C684.3 183.005 640.781 180.932 638.201 182.952C647.541 183.905 714.832 182.679 716.871 183.761L716.787 184.497L656.904 184.41C652.814 184.408 637.861 183.757 635.259 185.482C633.078 190.64 629.316 196.963 626.562 202.028C630.041 202.064 634.55 201.974 637.939 202.185C634.171 203.165 628.23 205.767 626.728 201.082C627.156 197.288 628.969 194.783 630.278 191.141C626.973 195.337 626.54 196.719 624.742 201.668C623.237 202.805 621.821 203.871 620.143 204.768C617.305 206.285 610.341 206.941 608.914 210.029C610.287 210.936 613.144 210.649 614.949 210.642C611.92 212.292 604.535 211.765 600.854 211.676C595.529 211.704 590.168 211.633 584.868 212.098C588.481 212.519 609.107 212.56 610.09 213.293C606.936 213.931 575.001 213.572 571.256 213.012L571.247 212.624L571.741 212.61C577.124 212.515 581.656 210.705 586.825 208.803L586.636 207.614C585.291 207.522 583.947 207.417 582.604 207.299C584.247 205.365 583.943 205.966 587.299 205.681L585.687 205.437C593.168 205.327 599.069 204.797 606.746 204.97L603.084 205.712C604.238 206.055 608.49 205.788 609.969 205.742L609.453 205.693C611.179 205.461 618.971 204.35 619.65 203.45C625.76 195.366 626.133 191.428 634.558 185.379Z"/><path fill="#A4CAD1" transform="scale(0.958333 0.958333)" d="M767.761 134.162L768.7 136.495C762.525 144.333 736.469 174.646 729.21 178.455L728.428 178.131C730.055 176.525 730.608 176.515 731.027 174.534C729.758 173.95 729.587 174.627 727.858 174.578L726.806 172.43C729.412 169.917 737.856 163.287 739.437 161.239C745.156 153.827 750.215 145.326 757.862 139.492C759.252 139.081 766.178 135.654 767.761 134.162Z"/><path fill="#278ABD" transform="scale(0.958333 0.958333)" d="M581.787 271.676C600.595 271.819 624.487 272.6 642.963 271.788C638.567 277.375 633.188 284.619 628.559 289.832C621.717 289.08 601.323 289.57 593.441 289.565L521.427 289.539C517.314 289.143 510.5 289.33 506.163 289.336C508.878 284.178 511.63 277.893 514.126 272.542C530.401 272.511 556.98 273.235 572.585 271.914C575.395 271.856 579.054 271.89 581.787 271.676Z"/><path fill="#6FBEDF" transform="scale(0.958333 0.958333)" d="M521.427 289.539L593.441 289.565C601.323 289.57 621.717 289.08 628.559 289.832C622.715 290.604 610.429 290.484 604.066 290.575C587.197 290.812 570.327 290.883 553.457 290.79C564.476 292.661 574.67 293.584 585.804 294.349C590.828 294.695 606.205 292.034 609.544 295.113C608.745 296.489 608.525 296.91 608.423 298.498C613.558 303.158 613.673 302.179 614.903 309.439L615.574 310.125C615.55 308.601 615.563 307.077 615.614 305.555L616.183 305.508C617.119 309.297 616.795 309.694 615.138 312.539C615.964 313.022 616.158 313.48 617.014 313.66C617.426 310.621 617.499 308.666 617.557 305.588L618.161 305.733C620.576 310.513 616.838 315.548 619.09 319.626C617.596 321.605 616.256 323.378 614.635 325.261C625.38 325.173 636.89 324.886 647.572 325.16C644.957 326.216 620.125 325.813 615.185 325.949C627.994 335.774 641.223 333.338 657.211 335.621C654.175 335.929 633.363 336.833 632.516 337.502C620.492 336.067 608.331 329.856 610.865 315.934L610.9 316.41C611.607 314.531 611.8 312.456 612.249 310.52C614.05 302.762 604.952 295.964 597.891 299.621L597.286 299.939L597.495 299.806C589.746 303.317 536.649 297.013 525.42 294.072C531.06 294.024 546.082 294.687 550.788 293.378C551.629 293.882 552.046 294.271 552.669 295.028L554.027 293.801L554.047 292.854C544.993 291.78 536.081 290.729 526.953 290.717C524.082 290.713 517.535 291.183 515.077 290.534C517.189 290.174 519.306 289.842 521.427 289.539Z"/><path fill="#6FBEDF" transform="scale(0.958333 0.958333)" d="M562.51 231.251C574.752 230.711 594.329 230.579 606.583 231.118C603.393 231.67 600.548 232.123 597.325 232.453C593.842 232.808 586.333 231.421 583.627 232.686C584.033 234.394 585.252 235.556 586.4 236.919C593.498 245.344 592.323 249.477 591.355 259.607L591.824 259.686C593.879 255.743 597.526 247.748 600.952 245.478C598.648 250.553 595.467 255.705 592.621 260.54C602.824 260.52 614.88 260.217 624.931 260.701C618.818 261.1 596.271 260.389 592.945 262.362C592.039 263.582 591.147 264.761 590.301 266.027L589.608 265.74L588.95 263.845C587.818 266.517 587.473 266.175 584.472 266.709L584.754 268.24L585.117 267.421L585.164 268.06C577.656 268.661 563.447 269.206 556.822 271.097C561.55 271.069 578.079 270.66 581.787 271.676C579.054 271.89 575.395 271.856 572.585 271.914C556.473 270.872 536.367 272.28 519.228 271.395C522.6 269.709 542.675 272.964 545.693 269.663L544.54 268.268L544.73 267.477C547.411 266.679 550.087 267.589 552.596 268.439C555.22 267.606 558.452 267.099 560.729 265.714L561.982 266.494C565.199 267.403 576.862 264.151 580.241 262.956L580.612 262.645C586.618 261.962 588.49 261.484 589.896 255.393C592.273 245.096 581.491 231.57 571.229 231.676C568.334 231.706 565.934 231.889 563.025 231.352L562.51 231.251Z"/><path fill="#A4CAD1" transform="scale(0.958333 0.958333)" d="M757.862 139.492C765.072 131.866 769.535 122.472 778.637 116.551C785.862 111.85 793.237 107.413 800.911 103.478L801.286 104.449C798.036 108.326 780.822 129.591 778.805 130.683C779.013 126.807 784.602 124.097 783.828 122.244C777.367 122.158 772.797 130.491 767.761 134.162C766.178 135.654 759.252 139.081 757.862 139.492Z"/><path fill="#A4CAD1" transform="scale(0.958333 0.958333)" d="M701.95 176.512C702.126 176.433 702.3 176.352 702.476 176.275C702.72 176.169 702.971 176.081 703.211 175.968C707.415 173.972 713.589 179.446 726.806 172.43L727.858 174.578C718.571 179.67 710.368 179.3 699.673 179.189C699.121 179.183 698.421 178.602 697.984 178.272C694.65 180.807 693.047 177.858 689.696 178.475L692.287 179.292C689.582 179.057 684.967 177.829 683.336 178.578C681.054 178.488 678.314 178.528 676.182 177.833L676.091 176.962C682.389 177.193 688.422 174.251 694.787 175.829C696.907 176.354 699.648 176.289 701.95 176.512Z"/><path fill="#6FBEDF" transform="scale(0.958333 0.958333)" d="M561.982 266.494L562.611 265.637C561.588 264.44 561.394 264.201 560.644 262.825C562.389 261.643 577.867 261.682 580.241 262.956C576.862 264.151 565.199 267.403 561.982 266.494Z"/><defs><linearGradient id="gradient_14" gradientUnits="userSpaceOnUse" x1="899.94073" y1="497.6597" x2="458.24463" y2="745.13544"><stop offset="0" stop-color="#F4C0A0"/><stop offset="1" stop-color="#9DC3D9"/></linearGradient></defs><path fill="url(#gradient_14)" transform="scale(0.958333 0.958333)" d="M373.358 194.813C373.923 224.538 373.459 255.391 373.443 285.251L373.375 453.862L373.358 512.999C373.357 532.786 372.387 552.474 376.696 571.849C382.375 597.532 395.582 620.938 414.629 639.076C441.166 664.552 472.833 675.698 509.227 674.866L512.736 674.775C567.423 675.708 622.855 674.474 677.625 675.092L730.063 675.073C737.559 675.067 750.553 675.427 757.656 674.898C763.965 675.588 789.404 675.442 797.276 675.264C827.28 674.586 860.811 677.519 890.042 672.03C905.09 669.204 919.469 661.708 932.448 654.164C936.749 650.55 941.941 647.463 946.223 643.596C970.071 622.059 980.523 602.241 989.14 572.09C992.446 583.523 974.347 608.476 971.037 617.38C962.752 639.665 952.128 660.183 932.532 675.204C918.576 685.902 894.249 697.633 875.995 699.592C821.578 705.431 765.724 700.384 710.989 700.122L574.136 700.094C543.319 700.121 513.147 700.909 482.681 697.337C427.862 690.909 391.692 644.744 381.22 593.268C379.026 582.483 374.492 572.629 373.321 561.176C370.858 537.066 371.743 511.379 371.761 487.207L371.781 359.423L371.763 256.049C371.74 241.275 370.892 208.442 373.358 194.813Z"/><path fill="#DCB29A" transform="scale(0.958333 0.958333)" d="M932.448 654.164L932.798 655.03C935.394 653.642 935.732 653.337 937.783 651.21L938.333 651.598C935.875 661.998 922.377 671.783 913.057 673.101C909.661 674.686 904.569 680.775 901.438 681.917C875.163 691.501 848.318 688.702 821.177 686.281C808.422 685.144 799.724 678.079 788.103 676.725C776.214 675.339 762.265 676.995 750.136 676.354C725.876 675.279 701.673 675.74 677.625 675.092L730.063 675.073C737.559 675.067 750.553 675.427 757.656 674.898C763.965 675.588 789.404 675.442 797.276 675.264C827.28 674.586 860.811 677.519 890.042 672.03C905.09 669.204 919.469 661.708 932.448 654.164Z"/><path fill="#6FBEDF" transform="scale(0.958333 0.958333)" d="M485.406 458.779C509.18 459.476 539.344 457.445 562.118 458.915C558.965 459.362 555.822 459.88 552.692 460.469C558.534 461.949 584.659 460.64 595.058 461.973C591.507 465.97 589.419 466.155 584.412 467.849L584.549 468.462C584.998 470.515 585.173 471.12 584.732 473.25C581.958 472.756 580.769 473.165 578.056 472.883C565.337 471.56 552.399 471.542 539.58 471.003L539.853 471.295L542.757 471.291L543.055 471.827C539.476 471.502 535.871 471.557 532.303 471.991C529.562 468.668 513.665 470.945 509.613 469.87C504.088 468.403 498.944 467.579 493.431 465.653C492.385 466.317 492.437 466.333 491.241 466.61C491.664 465.805 492.033 465.021 492.42 464.201C490.184 462.277 487.977 460.249 485.406 458.779Z"/><path fill="#278ABD" transform="scale(0.958333 0.958333)" d="M532.303 471.991C535.871 471.557 539.476 471.502 543.055 471.827C551.108 475.493 567.536 471.19 572.088 473.477L571.566 474.146C565.973 474.343 535.941 474.923 532.602 473.643L532.303 471.991Z"/></svg>